# xmcd
#
# Track frame offsets: 
#        150
#        17687
#        37696
#        55493
#        81253
#        120195
#        137088
#        156733
#        179692
#        196790
#        216537
#        242362
#
# Disc length: 3665 seconds
#
# Revision: 0
# Processed by: cddbd v1.5.2PL0 Copyright (c) Steve Scherf et al.
# Submitted via: ExactAudioCopy v0.99pb3
#
DISCID=a20e4f0c
DTITLE=Fried Bourbon - Take One
DYEAR=1900
DGENRE=Blues
TTITLE0=Bullfrog Blues
TTITLE1=Get Down Again
TTITLE2=My Babe
TTITLE3=Amphetamine Annie
TTITLE4=Double Trouble
TTITLE5=I Did The Best I Could
TTITLE6=I'm Gonna Drink
TTITLE7=Marry Go Round
TTITLE8=Kabal Tropical
TTITLE9=Love Get In The Way
TTITLE10=Coming Down
TTITLE11=Smooth Mood
EXTD=
EXTT0=
EXTT1=
EXTT2=
EXTT3=
EXTT4=
EXTT5=
EXTT6=
EXTT7=
EXTT8=
EXTT9=
EXTT10=
EXTT11=
PLAYORDER=
